<?xml version="1.0" encoding="UTF-8"?>
<svg xmlns="http://www.w3.org/2000/svg" xmlns:xlink="http://www.w3.org/1999/xlink" width="30px" height="30px" viewBox="0 0 30 30" version="1.1">
<g id="surface1">
<path style=" stroke:none;fill-rule:nonzero;fill:rgb(85.098039%,85.098039%,85.098039%);fill-opacity:1;" d="M 13.988281 15.710938 L 3.980469 7.929688 L 3.175781 7.304688 L 3.984375 7.933594 L 3.984375 23.203125 L 26.015625 23.203125 L 26.015625 7.933594 L 16 15.710938 C 15.410156 16.171875 14.582031 16.171875 13.988281 15.710938 Z M 13.988281 15.710938 "/>
<path style=" stroke:none;fill-rule:nonzero;fill:rgb(85.098039%,85.098039%,85.098039%);fill-opacity:1;" d="M 25.671875 5.824219 L 26.824219 7.304688 L 26.015625 7.933594 L 26.828125 7.304688 L 25.675781 5.824219 Z M 25.671875 5.824219 "/>
<path style=" stroke:none;fill-rule:nonzero;fill:rgb(0%,0%,0%);fill-opacity:1;" d="M 27.1875 4.6875 L 2.8125 4.6875 C 2.292969 4.6875 1.875 5.105469 1.875 5.625 L 1.875 24.375 C 1.875 24.894531 2.292969 25.3125 2.8125 25.3125 L 27.1875 25.3125 C 27.707031 25.3125 28.125 24.894531 28.125 24.375 L 28.125 5.625 C 28.125 5.105469 27.707031 4.6875 27.1875 4.6875 Z M 24.417969 6.800781 L 15 14.121094 L 5.582031 6.800781 Z M 26.015625 7.933594 L 26.015625 23.203125 L 3.984375 23.203125 L 3.984375 7.933594 L 3.175781 7.304688 L 3.980469 7.929688 L 13.988281 15.710938 C 14.582031 16.171875 15.410156 16.171875 16 15.710938 L 26.015625 7.933594 L 26.824219 7.304688 L 25.671875 5.824219 L 25.675781 5.824219 L 26.828125 7.304688 Z M 26.015625 7.933594 "/>
</g>
</svg>
