<?xml version="1.0" encoding="UTF-8"?>
<svg xmlns="http://www.w3.org/2000/svg" xmlns:xlink="http://www.w3.org/1999/xlink" width="30px" height="30px" viewBox="0 0 30 30" version="1.1">
<g id="surface1">
<path style=" stroke:none;fill-rule:nonzero;fill:rgb(100%,84.705882%,56.470588%);fill-opacity:1;" d="M 0.597656 7.03125 L 15 18.457031 L 29.402344 7.03125 Z M 0.597656 7.03125 "/>
<path style=" stroke:none;fill-rule:nonzero;fill:rgb(90.196078%,90.196078%,90.196078%);fill-opacity:1;" d="M 29.402344 22.96875 L 0.597656 22.96875 L 0.597656 7.03125 L 15 18.457031 L 29.402344 7.03125 Z M 29.402344 22.96875 "/>
<path style=" stroke:none;fill-rule:nonzero;fill:rgb(29.803922%,11.372549%,11.372549%);fill-opacity:1;" d="M 30 7.03125 C 30 6.96875 29.988281 6.902344 29.964844 6.835938 C 29.882812 6.597656 29.65625 6.433594 29.402344 6.433594 L 0.597656 6.433594 C 0.34375 6.433594 0.117188 6.597656 0.0351562 6.835938 C 0.0117188 6.902344 0 6.964844 0 7.03125 L 0 22.96875 C 0 23.296875 0.265625 23.566406 0.597656 23.566406 L 29.402344 23.566406 C 29.734375 23.566406 30 23.296875 30 22.96875 Z M 23.882812 16.539062 C 23.648438 16.308594 23.269531 16.308594 23.035156 16.539062 C 22.804688 16.773438 22.804688 17.152344 23.035156 17.386719 L 28.019531 22.371094 L 1.980469 22.371094 L 9.496094 14.851562 L 14.628906 18.925781 C 14.738281 19.011719 14.867188 19.054688 15 19.054688 C 15.132812 19.054688 15.261719 19.011719 15.371094 18.925781 L 28.804688 8.269531 L 28.804688 21.464844 Z M 15 17.695312 L 2.3125 7.628906 L 27.6875 7.628906 Z M 1.195312 8.269531 L 8.554688 14.105469 L 1.195312 21.464844 Z M 1.195312 8.269531 "/>
<path style=" stroke:none;fill-rule:nonzero;fill:rgb(29.803922%,11.372549%,11.372549%);fill-opacity:1;" d="M 22.371094 15.03125 C 22.136719 14.796875 21.757812 14.796875 21.527344 15.03125 C 21.292969 15.261719 21.292969 15.640625 21.527344 15.875 L 21.660156 16.011719 C 21.777344 16.128906 21.929688 16.1875 22.085938 16.1875 C 22.238281 16.1875 22.390625 16.128906 22.507812 16.011719 C 22.742188 15.777344 22.742188 15.398438 22.507812 15.164062 Z M 22.371094 15.03125 "/>
</g>
</svg>
