<?xml version="1.0" encoding="UTF-8"?>
<svg xmlns="http://www.w3.org/2000/svg" xmlns:xlink="http://www.w3.org/1999/xlink" width="30px" height="30px" viewBox="0 0 30 30" version="1.1">
<g id="surface1">
<path style=" stroke:none;fill-rule:nonzero;fill:rgb(0%,0%,0%);fill-opacity:1;" d="M 23.75 8.75 L 6.25 8.75 C 4.871094 8.75 3.75 9.871094 3.75 11.25 L 3.75 22.5 C 3.75 23.878906 4.871094 25 6.25 25 L 23.75 25 C 25.128906 25 26.25 23.878906 26.25 22.5 L 26.25 11.25 C 26.25 9.871094 25.128906 8.75 23.75 8.75 Z M 11.644531 17.894531 L 13.648438 19.644531 C 14.027344 19.976562 14.511719 20.140625 15 20.140625 C 15.488281 20.140625 15.972656 19.976562 16.351562 19.644531 L 18.355469 17.894531 L 18.308594 17.941406 L 22.867188 22.5 L 7.132812 22.5 L 11.691406 17.941406 Z M 6.25 21.617188 L 6.25 13.175781 L 10.753906 17.113281 Z M 19.246094 17.113281 L 23.75 13.175781 L 23.75 21.613281 Z M 23.75 11.25 L 23.75 11.511719 L 15.53125 18.703125 C 15.246094 18.953125 14.753906 18.953125 14.46875 18.703125 L 6.25 11.511719 L 6.25 11.25 Z M 23.75 11.25 "/>
</g>
</svg>
