<?xml version="1.0" encoding="UTF-8"?>
<svg xmlns="http://www.w3.org/2000/svg" xmlns:xlink="http://www.w3.org/1999/xlink" width="139px" height="139px" viewBox="0 0 35 35" version="1.1">
<g id="surface1">
<path style=" stroke:none;fill-rule:nonzero;fill:rgb(0%,0%,0%);fill-opacity:1;" d="M 32.304688 4.378906 L 2.695312 4.378906 C 1.210938 4.378906 0 5.589844 0 7.074219 L 0 27.925781 C 0 29.410156 1.210938 30.621094 2.695312 30.621094 L 32.304688 30.621094 C 33.789062 30.621094 35 29.410156 35 27.925781 L 35 7.074219 C 35 5.589844 33.789062 4.378906 32.304688 4.378906 Z M 31.914062 6.371094 L 17.683594 18.539062 L 3.457031 6.371094 Z M 33.007812 27.925781 C 33.007812 28.308594 32.6875 28.628906 32.304688 28.628906 L 2.695312 28.628906 C 2.3125 28.628906 1.992188 28.308594 1.992188 27.925781 L 1.992188 7.746094 L 17.035156 20.609375 C 17.042969 20.617188 17.054688 20.625 17.066406 20.628906 C 17.070312 20.636719 17.085938 20.644531 17.09375 20.652344 C 17.117188 20.667969 17.132812 20.683594 17.152344 20.6875 C 17.160156 20.699219 17.167969 20.699219 17.175781 20.703125 C 17.203125 20.71875 17.234375 20.734375 17.261719 20.75 C 17.269531 20.75 17.277344 20.757812 17.285156 20.757812 C 17.308594 20.765625 17.328125 20.777344 17.359375 20.785156 C 17.367188 20.785156 17.382812 20.792969 17.390625 20.792969 C 17.410156 20.800781 17.433594 20.808594 17.457031 20.808594 C 17.464844 20.808594 17.476562 20.816406 17.484375 20.816406 C 17.507812 20.824219 17.535156 20.824219 17.558594 20.832031 C 17.566406 20.832031 17.574219 20.832031 17.582031 20.832031 C 17.609375 20.832031 17.648438 20.835938 17.675781 20.835938 C 17.707031 20.835938 17.742188 20.835938 17.773438 20.832031 C 17.78125 20.832031 17.789062 20.832031 17.796875 20.832031 C 17.816406 20.832031 17.847656 20.824219 17.867188 20.816406 C 17.875 20.816406 17.890625 20.808594 17.898438 20.808594 C 17.921875 20.800781 17.945312 20.792969 17.964844 20.792969 C 17.972656 20.792969 17.988281 20.785156 17.996094 20.785156 C 18.015625 20.777344 18.039062 20.769531 18.070312 20.757812 C 18.074219 20.757812 18.082031 20.75 18.089844 20.75 C 18.121094 20.734375 18.148438 20.71875 18.179688 20.703125 C 18.1875 20.699219 18.195312 20.699219 18.203125 20.6875 C 18.222656 20.675781 18.238281 20.667969 18.261719 20.652344 C 18.265625 20.644531 18.28125 20.636719 18.289062 20.628906 C 18.296875 20.625 18.3125 20.617188 18.320312 20.609375 L 33.007812 8.0625 Z M 33.007812 27.925781 "/>
</g>
</svg>
